<svg xmlns="http://www.w3.org/2000/svg" width="21.001" height="20" viewBox="0 0 21.001 20">
  <path id="Icon_simple-line" data-name="Icon simple-line" d="M16.945,8.988a.552.552,0,0,1,0,1.1H15.409v.984h1.536a.551.551,0,1,1,0,1.1H14.857a.552.552,0,0,1-.549-.55V7.452A.553.553,0,0,1,14.86,6.9h2.088a.551.551,0,0,1,0,1.1H15.409v.984h1.536Zm-3.373,2.639a.551.551,0,0,1-.378.522.565.565,0,0,1-.174.027.541.541,0,0,1-.446-.219l-2.138-2.9v2.573a.55.55,0,1,1-1.1,0V7.452a.548.548,0,0,1,.376-.521.509.509,0,0,1,.17-.029.566.566,0,0,1,.433.222l2.154,2.914V7.452a.551.551,0,1,1,1.1,0v4.175Zm-5.024,0a.55.55,0,1,1-1.1,0V7.452a.55.55,0,1,1,1.1,0Zm-2.158.55H4.3a.554.554,0,0,1-.551-.55V7.452a.551.551,0,0,1,1.1,0v3.623H6.39a.551.551,0,0,1,0,1.1M21,9.382C21,4.683,16.289.858,10.5.858S0,4.683,0,9.382c0,4.21,3.736,7.737,8.781,8.407.342.072.808.226.926.516a2.137,2.137,0,0,1,.033.945l-.144.893c-.039.263-.21,1.038.918.564a33.85,33.85,0,0,0,8.257-6.1A7.545,7.545,0,0,0,21,9.382" transform="translate(0 -0.858)" fill="#07b43b"/>
</svg>
