<svg xmlns="http://www.w3.org/2000/svg" width="25" height="25" viewBox="0 0 25 25">
  <g id="Group_59" data-name="Group 59" transform="translate(-563 -1188)">
    <path id="Path_17" data-name="Path 17" d="M12.5,0A12.5,12.5,0,1,1,0,12.5,12.5,12.5,0,0,1,12.5,0Z" transform="translate(563 1188)" fill="#fff"/>
    <path id="Path_17_-_Outline" data-name="Path 17 - Outline" d="M12.5,1A11.5,11.5,0,0,0,4.368,20.632,11.5,11.5,0,0,0,20.632,4.368,11.425,11.425,0,0,0,12.5,1m0-1A12.5,12.5,0,1,1,0,12.5,12.5,12.5,0,0,1,12.5,0Z" transform="translate(563 1188)" fill="#929091"/>
    <circle id="Ellipse_20" data-name="Ellipse 20" cx="8.5" cy="8.5" r="8.5" transform="translate(567 1192)" fill="#bc1320"/>
  </g>
</svg>
