<?xml version="1.0" encoding="utf-8"?>
<!-- Svg Vector Icons : http://www.onlinewebfonts.com/icon -->
<!DOCTYPE svg PUBLIC "-//W3C//DTD SVG 1.1//EN" "http://www.w3.org/Graphics/SVG/1.1/DTD/svg11.dtd">
<svg version="1.1" xmlns="http://www.w3.org/2000/svg" xmlns:xlink="http://www.w3.org/1999/xlink" x="0px" y="0px" viewBox="0 0 1000 1000" enable-background="new 0 0 1000 1000" xml:space="preserve">
<metadata> Svg Vector Icons : http://www.onlinewebfonts.com/icon </metadata>
<g><g transform="translate(0.000000,511.000000) scale(0.100000,-0.100000)"><path d="M1010.8,4522.8l-486-484v-90v-90l486-484c458-458,490-486,558-486c144,0,236,86,236,222c0,56-34,100-274,342l-274,276h1024.1c1100.1,0,1120.1,2,1192.1,102c40,60,42,176,0,234c-72,104-66,104-1182.1,104H1254.8l266,266c218,218,268,278,276,338c22,136-74,236-228,236C1500.8,5008.8,1468.8,4980.8,1010.8,4522.8z"/><path d="M7843.2,4950.8c-62-64-78-166-36-248c12-24,132-154,264-288l244-246H7287.1c-1140.1,0-1128.1,2-1190.1-130c-40-82-40-98,0-180c62-132,50-130,1190.1-130h1024.1l-262-268c-262-266-264-268-264-362c0-76,10-104,58-152c66-66,166-78,258-30c92,50,940,916.1,954.1,978.1c8,30,8,78,0,110c-14,60-862,926.1-954.1,976.1C8009.2,5028.8,7909.2,5016.8,7843.2,4950.8z"/><path d="M4535,3694.7c-242-88-410-236-516-462l-64-134l-6-1914.1c-2-1054-10-1916.1-18-1916.1c-6,0-188,132-404,294c-216,162-442,320-502,350c-386,196-870.1,140-1210.1-142c-184-152-254-302-252-540c2-264-64-188,1746.1-1994.1C5033-4483.7,5057-4503.7,5381-4641.8c322-134,338-136,1174.1-146c814.1-8,948.1,2,1246.1,88c450,130,876,416,1168.1,784.1c216,272,348,542,452,922.1l54,192v1452.1V100.5l-74,150c-186,376-586,570-976,470c-72-18-160-52-198-74c-36-22-68-38-70-34c-90,214-246,380-442,478c-132,64-150,68-360,68c-200,0-232-6-346-58c-68-32-128-54-132-50c-2,4-32,56-64,114c-70,132-232,284-374,350c-220,106-454,114-678,24l-116-46v744c0,810-8,890-114,1072.1c-80,136-224,266-376,342c-122,60-158,68-328,72C4681,3728.7,4611,3720.7,4535,3694.7z M5011,3242.7c60-36,112-88,148-150l56-94l10-1700.1c6-934.1,18-1716.1,28-1736.1c24-48,116-94,194-94c44,0,82,20,130,68l68,68v612c0,510,6,626,32,688c66,158,220,264,388,264c176,0,304-76,386-230c42-76,44-114,54-710c6-346,18-646,28-666c22-48,116-94,190-94c40,0,84,22,126,58l66,58l10,438c10,438,10,440,66,522c78,120,188,186,328,198c160,14,308-62,396-204l60-96l6-402c4-230,16-426,28-458c26-66,108-114,198-114c44,0,82,20,130,68c68,68,68,68,68,256c0,162,8,202,52,294c90,180,280,268,476,220c144-34,280-172,312-320c18-80,22-452,16-1408.1l-8-1300.1l-54-198c-188-694-710-1216.1-1396.1-1394.1c-154-40-230-46-872.1-52c-766-10-902,2-1146.1,100c-278,114-290,122-1946.1,1774.1C2760.9-1617.6,2028.8-877.5,2012.8-847.5c-54,104-38,174,72,278c176,172,462,222,704,124c48-18,352-234,676-476c326-244,616-450,646-458c32-8,82,0,122,16c140,58,132-78,132,2224.1c0,1582.1,6,2092.1,24,2156.1c30,100,160,234,256,266C4757,3320.7,4907,3302.7,5011,3242.7z"/></g></g>
</svg>