<svg xmlns="http://www.w3.org/2000/svg" width="31.247" height="25" viewBox="0 0 31.247 25">
  <path id="Icon_awesome-store-alt" data-name="Icon awesome-store-alt" d="M15.626,18.75H6.251V10.938H3.126v12.5A1.561,1.561,0,0,0,4.689,25h12.5a1.561,1.561,0,0,0,1.563-1.562v-12.5H15.626ZM30.987,6.943,26.822.693A1.571,1.571,0,0,0,25.519,0H5.734a1.556,1.556,0,0,0-1.3.693L.27,6.943a1.563,1.563,0,0,0,1.3,2.432h28.12A1.565,1.565,0,0,0,30.987,6.943ZM25,24.219a.784.784,0,0,0,.781.781h1.563a.784.784,0,0,0,.781-.781V10.938H25Z" transform="translate(-0.004)"/>
</svg>
